<svg xmlns="http://www.w3.org/2000/svg" xmlns:xlink="http://www.w3.org/1999/xlink" width="25px" height="21px"><path fill-rule="evenodd" fill="rgb(163, 163, 163)" d="M23.503,20.026 L2.423,20.026 C1.593,20.026 0.918,19.355 0.918,18.530 L0.918,4.566 C0.918,3.741 1.593,3.070 2.423,3.070 L8.948,3.070 L8.948,1.574 C8.948,0.749 9.623,0.078 10.454,0.078 L15.472,0.078 C16.303,0.078 16.978,0.749 16.978,1.574 L16.978,3.070 L23.503,3.070 C24.333,3.070 25.008,3.741 25.008,4.566 L25.008,18.530 C25.008,19.355 24.333,20.026 23.503,20.026 ZM15.974,1.574 C15.974,1.298 15.750,1.075 15.472,1.075 L10.454,1.075 C10.177,1.075 9.952,1.298 9.952,1.574 L9.952,3.070 L15.974,3.070 L15.974,1.574 ZM24.005,4.566 C24.005,4.291 23.780,4.067 23.503,4.067 L16.477,4.067 C16.477,4.067 16.477,4.067 16.476,4.067 L9.450,4.067 C9.450,4.067 9.449,4.067 9.449,4.067 L2.423,4.067 C2.146,4.067 1.922,4.291 1.922,4.566 L1.922,9.168 L9.542,11.143 C11.780,11.724 14.146,11.724 16.383,11.143 L24.005,9.168 L24.005,4.566 ZM24.005,10.199 L16.637,12.109 C15.435,12.420 14.199,12.575 12.963,12.575 C11.727,12.575 10.492,12.420 9.289,12.109 L1.922,10.199 L1.922,18.530 C1.922,18.805 2.146,19.029 2.423,19.029 L23.503,19.029 C23.780,19.029 24.005,18.805 24.005,18.530 L24.005,10.199 ZM12.963,11.049 C11.856,11.049 10.956,10.155 10.956,9.054 C10.956,7.954 11.856,7.059 12.963,7.059 C14.070,7.059 14.971,7.954 14.971,9.054 C14.971,10.155 14.070,11.049 12.963,11.049 ZM12.963,8.057 C12.410,8.057 11.959,8.505 11.959,9.054 C11.959,9.604 12.410,10.052 12.963,10.052 C13.516,10.052 13.967,9.604 13.967,9.054 C13.967,8.505 13.516,8.057 12.963,8.057 Z"/></svg>