<svg 
 xmlns="http://www.w3.org/2000/svg"
 xmlns:xlink="http://www.w3.org/1999/xlink"
 width="16px" height="16px">
<path fill-rule="evenodd"  opacity="0.502" fill="rgb(0, 0, 0)"
 d="M14.320,12.536 C14.057,12.272 13.706,12.150 13.361,12.170 L12.435,11.243 C12.811,10.763 13.121,10.236 13.361,9.668 C13.723,8.808 13.907,7.897 13.907,6.958 C13.907,6.019 13.723,5.106 13.361,4.248 C13.010,3.418 12.509,2.675 11.870,2.035 C11.232,1.395 10.489,0.893 9.661,0.542 C8.802,0.179 7.892,-0.005 6.955,-0.005 C6.018,-0.005 5.105,0.179 4.249,0.542 C3.421,0.891 2.678,1.393 2.039,2.033 C1.400,2.673 0.899,3.417 0.549,4.246 C0.187,5.106 0.002,6.018 0.002,6.956 C0.002,7.895 0.187,8.808 0.549,9.666 C0.899,10.496 1.400,11.240 2.039,11.879 C2.678,12.519 3.421,13.021 4.249,13.372 C5.107,13.735 6.018,13.919 6.955,13.919 C7.892,13.919 8.804,13.735 9.661,13.372 C10.234,13.129 10.767,12.815 11.252,12.430 L12.175,13.355 C12.157,13.701 12.278,14.052 12.541,14.316 L13.854,15.630 C14.098,15.876 14.420,16.000 14.742,16.000 C15.064,16.000 15.386,15.877 15.631,15.630 C16.122,15.139 16.122,14.341 15.631,13.849 L14.320,12.536 ZM11.238,10.043 C11.072,10.271 10.888,10.489 10.685,10.692 C10.487,10.890 10.276,11.070 10.055,11.231 C9.159,11.886 8.083,12.239 6.953,12.239 C5.543,12.239 4.219,11.690 3.223,10.691 C2.227,9.693 1.677,8.365 1.677,6.954 C1.677,5.544 2.225,4.216 3.223,3.219 C4.219,2.221 5.545,1.670 6.953,1.670 C8.361,1.670 9.687,2.219 10.683,3.219 C11.679,4.216 12.229,5.544 12.229,6.954 C12.231,8.080 11.884,9.149 11.238,10.043 Z"/>
</svg>