<svg 
 xmlns="http://www.w3.org/2000/svg"
 xmlns:xlink="http://www.w3.org/1999/xlink"
 width="37px" height="37px">
<path fill-rule="evenodd"  fill="rgb(163, 163, 163)"
 d="M33.113,7.789 C32.298,7.789 31.543,7.536 30.918,7.106 L27.478,10.554 C29.385,12.646 30.550,15.428 30.550,18.478 C30.550,21.482 29.419,24.226 27.563,26.307 L30.902,29.652 C31.433,29.379 32.026,29.210 32.665,29.210 C34.811,29.210 36.551,30.954 36.551,33.105 C36.551,35.256 34.811,37.000 32.665,37.000 C30.518,37.000 28.778,35.256 28.778,33.105 C28.778,32.078 29.182,31.150 29.831,30.454 L26.627,27.244 C24.551,29.104 21.812,30.237 18.814,30.237 C15.770,30.237 12.994,29.070 10.906,27.159 L7.122,30.950 C7.533,31.568 7.774,32.308 7.774,33.105 C7.774,35.256 6.033,37.000 3.887,37.000 C1.740,37.000 -0.000,35.256 -0.000,33.105 C-0.000,30.954 1.740,29.210 3.887,29.210 C4.759,29.210 5.556,29.509 6.204,29.995 L9.981,26.211 C8.175,24.142 7.079,21.436 7.079,18.478 C7.079,15.474 8.209,12.730 10.066,10.649 L6.327,6.903 C5.658,7.449 4.817,7.789 3.887,7.789 C1.740,7.789 -0.000,6.046 -0.000,3.895 C-0.000,1.743 1.740,-0.000 3.887,-0.000 C6.033,-0.000 7.774,1.743 7.774,3.895 C7.774,4.633 7.557,5.315 7.201,5.904 L11.001,9.711 C13.078,7.851 15.816,6.718 18.814,6.718 C21.766,6.718 24.467,7.817 26.532,9.626 L29.975,6.176 C29.509,5.534 29.226,4.750 29.226,3.895 C29.226,1.743 30.966,-0.000 33.113,-0.000 C35.260,-0.000 37.000,1.743 37.000,3.895 C37.000,6.046 35.260,7.789 33.113,7.789 ZM32.665,35.577 C34.027,35.577 35.131,34.470 35.131,33.105 C35.131,31.740 34.027,30.633 32.665,30.633 C32.015,30.633 31.430,30.890 30.989,31.300 L30.864,31.426 C30.454,31.868 30.198,32.455 30.198,33.105 C30.198,34.470 31.302,35.577 32.665,35.577 ZM3.887,30.633 C2.524,30.633 1.420,31.740 1.420,33.105 C1.420,34.470 2.524,35.577 3.887,35.577 C5.249,35.577 6.353,34.470 6.353,33.105 C6.353,31.740 5.249,30.633 3.887,30.633 ZM3.887,1.423 C2.524,1.423 1.420,2.529 1.420,3.895 C1.420,5.259 2.524,6.366 3.887,6.366 C5.249,6.366 6.353,5.259 6.353,3.895 C6.353,2.529 5.249,1.423 3.887,1.423 ZM18.814,8.044 C13.073,8.044 8.402,12.725 8.402,18.478 C8.402,24.231 13.073,28.911 18.814,28.911 C24.556,28.911 29.227,24.231 29.227,18.478 C29.227,12.725 24.556,8.044 18.814,8.044 ZM33.113,1.423 C31.751,1.423 30.646,2.529 30.646,3.895 C30.646,5.259 31.751,6.366 33.113,6.366 C34.475,6.366 35.580,5.259 35.580,3.895 C35.580,2.529 34.475,1.423 33.113,1.423 ZM12.408,21.182 C12.408,19.301 13.938,17.771 15.819,17.771 L21.779,17.771 C23.660,17.771 25.190,19.301 25.190,21.182 L25.190,24.266 L12.408,24.266 L12.408,21.182 ZM13.577,23.097 L16.260,23.097 L21.338,23.097 L24.021,23.097 L24.021,21.182 C24.021,19.946 23.015,18.940 21.779,18.940 L20.576,18.940 L19.152,18.940 L18.446,18.940 L17.022,18.940 L15.819,18.940 C14.583,18.940 13.577,19.946 13.577,21.182 L13.577,23.097 ZM18.799,17.496 C16.908,17.496 15.369,15.957 15.369,14.065 C15.369,12.174 16.908,10.635 18.799,10.635 C20.690,10.635 22.229,12.174 22.229,14.065 C22.229,15.957 20.690,17.496 18.799,17.496 ZM18.799,11.804 C17.552,11.804 16.538,12.818 16.538,14.065 C16.538,15.312 17.552,16.327 18.799,16.327 C20.046,16.327 21.060,15.312 21.060,14.065 C21.060,12.818 20.046,11.804 18.799,11.804 Z"/>
</svg>