<svg xmlns="http://www.w3.org/2000/svg" xmlns:xlink="http://www.w3.org/1999/xlink" width="17px" height="20px"><path fill-rule="evenodd" fill="rgb(163, 163, 163)" d="M16.995,17.430 C16.995,19.202 12.591,20.011 8.502,20.011 C4.409,20.011 0.009,19.202 0.009,17.430 C0.009,15.629 4.343,15.085 6.248,14.934 C4.642,12.137 2.613,8.204 2.613,6.183 C2.613,2.772 5.252,-0.001 8.498,-0.001 C11.744,-0.001 14.383,2.772 14.383,6.183 C14.383,8.204 12.354,12.137 10.749,14.934 C12.654,15.085 16.992,15.629 16.995,17.430 ZM13.575,6.183 C13.575,3.242 11.297,0.849 8.498,0.849 C5.703,0.849 3.425,3.242 3.425,6.183 C3.425,8.751 7.317,15.196 8.498,17.091 C9.680,15.196 13.575,8.751 13.575,6.183 ZM10.275,15.747 C9.501,17.058 8.918,17.993 8.836,18.095 C8.576,18.418 8.269,18.242 8.164,18.095 C8.086,17.985 7.499,17.058 6.726,15.747 C2.605,15.996 0.817,16.972 0.817,17.426 C0.817,18.014 3.527,19.157 8.498,19.157 C13.470,19.157 16.179,18.018 16.183,17.426 C16.183,16.968 14.395,15.996 10.275,15.747 ZM5.937,6.183 C5.937,4.696 7.083,3.491 8.498,3.491 C9.913,3.491 11.060,4.696 11.060,6.183 C11.060,7.669 9.913,8.874 8.498,8.874 C7.083,8.874 5.937,7.669 5.937,6.183 ZM10.251,6.183 C10.251,5.166 9.466,4.341 8.498,4.341 C7.530,4.341 6.745,5.166 6.745,6.183 C6.745,7.199 7.530,8.024 8.498,8.024 C9.466,8.024 10.251,7.199 10.251,6.183 Z"/></svg>